<?xml version="1.0" encoding="UTF-8" standalone="no" ?>
<!DOCTYPE svg PUBLIC "-//W3C//DTD SVG 1.1//EN" "http://www.w3.org/Graphics/SVG/1.1/DTD/svg11.dtd">
<svg xmlns="http://www.w3.org/2000/svg" xmlns:xlink="http://www.w3.org/1999/xlink" version="1.1" width="1080" height="1080" viewBox="0 0 1080 1080" xml:space="preserve">
<desc>Created with Fabric.js 5.2.4</desc>
<defs>
</defs>
<g transform="matrix(1 0 0 1 540 540)" id="d8de2dbc-b4d8-45e7-924d-bfa9b141c70e"  >
<rect style="stroke: none; stroke-width: 1; stroke-dasharray: none; stroke-linecap: butt; stroke-dashoffset: 0; stroke-linejoin: miter; stroke-miterlimit: 4; fill: rgb(255,255,255); fill-rule: nonzero; opacity: 1; visibility: hidden;" vector-effect="non-scaling-stroke"  x="-540" y="-540" rx="0" ry="0" width="1080" height="1080" />
</g>
<g transform="matrix(1 0 0 1 540 540)" id="4c9430bc-110b-482f-8916-01ed35c11e5a"  >
</g>
<g transform="matrix(54 0 0 54 540 540)"  >
<g style=""   >
		<g transform="matrix(1 0 0 1 -0.83 -0.83)"  >
<path style="stroke: rgb(133,146,160); stroke-width: 2; stroke-dasharray: none; stroke-linecap: round; stroke-dashoffset: 0; stroke-linejoin: round; stroke-miterlimit: 4; fill: none; fill-rule: nonzero; opacity: 1;" vector-effect="non-scaling-stroke"  transform=" translate(-9.17, -9.17)" d="M 9.16667 15.8333 C 12.8486 15.8333 15.8333 12.8486 15.8333 9.16667 C 15.8333 5.48477 12.8486 2.5 9.16667 2.5 C 5.48477 2.5 2.5 5.48477 2.5 9.16667 C 2.5 12.8486 5.48477 15.8333 9.16667 15.8333 Z" stroke-linecap="round" />
</g>
		<g transform="matrix(1 0 0 1 5.69 5.69)"  >
<path style="stroke: rgb(133,146,160); stroke-width: 2; stroke-dasharray: none; stroke-linecap: round; stroke-dashoffset: 0; stroke-linejoin: round; stroke-miterlimit: 4; fill: none; fill-rule: nonzero; opacity: 1;" vector-effect="non-scaling-stroke"  transform=" translate(-15.69, -15.69)" d="M 17.5 17.5 L 13.875 13.875" stroke-linecap="round" />
</g>
</g>
</g>
</svg>